<svg width="400" height="400" viewBox="0 0 400 400" fill="none" xmlns="http://www.w3.org/2000/svg">
<path fill-rule="evenodd" clip-rule="evenodd" d="M101.596 139.121C98.8765 139.349 97.8798 149.748 98.9226 164.999C99.5123 173.622 104.139 186.758 110.981 195.766C128.606 218.965 163.616 218.516 166.987 214.514C173.582 206.673 148.006 204.392 141.351 187.287C135.004 170.972 142.771 152.742 144.164 149.417C145.311 146.683 137.722 147.936 133.816 156.336C133.217 146.488 135.021 122.793 133.237 121.76C129.6 119.656 126.841 131.393 124.715 142.573C124 133.003 127.394 117.474 123.96 118.083C120.895 118.625 116.886 132.96 113.984 147.187C114.982 135.037 113.734 127.022 110.9 127.55C107.692 128.147 106.007 145.032 105.303 152.079C103.862 147.122 103.975 138.921 101.596 139.121Z" fill="url(#paint0_linear_1113_6214)"/>
<path fill-rule="evenodd" clip-rule="evenodd" d="M219.974 317.699C219.974 317.699 225.737 318.026 230.643 326.181C233.556 331.024 235.858 338.41 236.88 349.539C237.324 352.49 240.082 354.525 243.034 354.08C245.985 353.635 248.02 350.878 247.575 347.926C244.895 335.211 241.021 327.107 237.078 321.849C228.593 310.532 219.674 311.48 219.674 311.48C217.959 311.563 216.633 313.023 216.715 314.739C216.798 316.455 218.258 317.782 219.974 317.699Z" fill="#FFC700"/>
<path fill-rule="evenodd" clip-rule="evenodd" d="M232.94 338.012C236.191 336.202 240.547 332.658 243.744 340.778C243.744 340.778 245.537 344.42 247.036 347.463C248.155 349.736 247.299 352.487 245.088 353.725C238.772 357.259 227.093 363.793 227.093 363.793L211.116 364.474C211.116 364.474 196.704 356.255 202.576 354.736C213.721 351.853 232.94 338.012 232.94 338.012Z" fill="#FFC700"/>
<path fill-rule="evenodd" clip-rule="evenodd" d="M195.155 327.291C197.874 326.508 197.802 329.731 202.653 329.18C202.653 329.18 205.969 335.838 208.032 339.981C208.412 340.744 208.412 341.642 208.031 342.405C207.65 343.168 206.932 343.708 206.093 343.863C203.835 344.279 201.331 344.741 201.331 344.741C201.331 344.741 180.311 344.552 172.748 344.161C167.48 343.889 163.908 344.348 157.592 342.161C155.771 334.27 168.313 336.6 177.504 334.706C185.484 333.062 192.91 327.937 195.155 327.291Z" fill="#FFC700"/>
<path fill-rule="evenodd" clip-rule="evenodd" d="M194.315 334.518C195.02 334.358 195.985 334.251 197.267 334.219C197.363 335.114 198.168 335.762 199.062 335.666C199.957 335.57 200.605 334.765 200.509 333.87C201.852 333.584 202.798 333.505 203.441 333.566L203.691 333.208C204.256 332.424 203.51 331.296 203.397 330.363C201.412 313.961 202.464 301.585 202.464 301.585C202.76 300.123 201.815 298.695 200.353 298.398C198.892 298.101 197.464 299.046 197.167 300.508C197.167 300.508 193.661 311.78 193.674 327.69C193.676 329.69 193.734 331.764 193.981 333.88C193.997 334.017 193.941 334.201 194.047 334.289L194.315 334.518Z" fill="#FFC700"/>
<path fill-rule="evenodd" clip-rule="evenodd" d="M277.901 270.406C276.874 279.618 271.829 309.913 243.176 316.442C142.618 339.356 141.458 208.751 163.429 177.995C188.693 142.631 199.074 152.493 207.564 115.02C212.856 112.899 243.6 85.8493 248.487 89.199C241.72 170.28 202.519 191.735 228.981 219.536C232.399 223.127 246.874 256.767 261.799 268.051C265.925 269.013 268.08 265.476 267.765 262.967C270.875 266.861 270.311 266.305 272.057 271.283C274.336 268.824 276.091 268.475 278.091 268.655C278.055 269.261 277.991 269.843 277.901 270.406Z" fill="url(#paint1_linear_1113_6214)"/>
<path fill-rule="evenodd" clip-rule="evenodd" d="M217.433 48.4635C222.509 47.5407 225.311 44.6229 223.188 40.2716C225.205 40.1383 226.822 42.9978 228.503 46.4322C229.595 44.469 230.609 43.3564 228.251 38.0979C231.748 39.882 233.333 43.1391 234.444 45.5854C236.271 42.5735 237.541 41.8201 236.929 34.0279C242.792 36.5754 248.302 61.8708 249.119 75.2002C249.924 88.3236 248.007 107.678 238.886 114.659C229.766 121.639 202.561 130.908 194.397 117.084C188.117 106.45 181.342 59.8247 185.435 54.8317C187.591 52.2001 198.569 49.7419 212.215 48.7628C212.246 48.7544 212.277 48.7476 212.308 48.7406L212.435 48.7468C214.109 48.6288 215.782 48.5337 217.433 48.4635Z" fill="url(#paint2_linear_1113_6214)"/>
<path d="M221.684 86.5129C216.084 86.9361 210.777 81.4504 209.831 74.2602C208.886 67.07 212.659 60.8992 218.26 60.4769C223.86 60.0537 229.166 65.5394 230.112 72.7296C231.058 79.9189 227.284 86.0906 221.684 86.5129Z" fill="white"/>
<path fill-rule="evenodd" clip-rule="evenodd" d="M177.25 101.457C177.25 101.457 191.736 102.194 192.985 104.267C194.234 106.339 198.935 116.862 196.929 118.609C194.922 120.357 189.21 121.139 188.893 122.076C188.575 123.012 197.234 122.094 197.234 122.094L213.206 118.462L217.42 115.505L218.05 104.834L206.529 97.9272L184.387 98.3347L177.25 101.457Z" fill="#FFC606"/>
<path d="M221.832 83.0177C217.773 83.3449 213.919 79.1681 213.225 73.6871C212.531 68.207 215.259 63.4988 219.319 63.1707C223.378 62.8435 227.232 67.0211 227.926 72.5012C228.62 77.9814 225.892 82.6904 221.832 83.0177Z" fill="#032B44"/>
<path fill-rule="evenodd" clip-rule="evenodd" d="M182.302 100.472C182.302 100.472 194.585 101.354 195.834 103.426C197.083 105.498 202.042 117.006 200.035 118.754C198.028 120.501 192.316 121.283 191.999 122.22C191.681 123.157 200.017 120.886 200.017 120.886L218.967 115.859L222.505 110.436L224.356 105.614L219.75 92.2024L187.493 98.4787L182.302 100.472Z" fill="#FF9A06"/>
<path fill-rule="evenodd" clip-rule="evenodd" d="M213.234 109.85C216.853 107.939 220.5 107.64 221.373 109.183C222.246 110.725 220.017 113.529 216.398 115.439C212.779 117.35 211.828 118.969 210.955 117.427C210.082 115.884 209.615 111.76 213.234 109.85Z" fill="#E92A44"/>
<path fill-rule="evenodd" clip-rule="evenodd" d="M201.908 60.8405C206.09 59.4244 208.681 89.8099 219.111 88.4478C227.781 87.3154 225.808 108.928 220.76 115.353C216.658 120.575 181.52 124.051 190.08 121.23C198.478 118.462 213.031 117.152 217.287 112.707C222.743 107.008 221.386 93.2401 218.755 92.8662C213.922 99.5308 175.456 103.604 172.995 102.418C170.005 100.979 166.114 97.0847 168.951 96.9208C171.791 96.7566 192.488 96.5594 196.947 91.508C201.401 86.4571 200.012 61.4826 201.908 60.8405Z" fill="#FFC606"/>
<path fill-rule="evenodd" clip-rule="evenodd" d="M201.905 60.9866C205.549 60.0232 206.054 92.0686 203.658 93.0439C193.254 97.2839 166.114 97.0848 168.951 96.9209C171.791 96.7567 192.488 96.5594 196.947 91.5081C201.402 86.4571 200.009 61.6287 201.905 60.9866Z" fill="#FFE03C"/>
<path d="M193.906 88.6159C192.742 88.7581 191.593 88.3031 190.553 87.3911C188.463 85.559 186.814 81.8833 186.374 77.4991C185.716 70.9324 188.021 65.2637 191.523 64.8374C195.024 64.4102 198.396 69.3874 199.055 75.9542C199.712 82.5202 197.408 88.1896 193.906 88.6159Z" fill="white"/>
<path d="M194.619 85.191C191.947 85.4839 189.384 81.995 188.895 77.3971C188.407 72.7998 190.176 68.8352 192.849 68.5415C195.521 68.2485 198.083 71.7382 198.572 76.3354C199.061 80.9326 197.291 84.898 194.619 85.191Z" fill="#032B44"/>
<path fill-rule="evenodd" clip-rule="evenodd" d="M214.876 289.59C212.934 288.382 218.556 282.534 220.807 278.141C215.516 282.821 202.837 294.035 199.998 292.642C197.489 291.411 201.951 284.923 210.911 276.732C199.102 285.338 186.381 293.393 183.686 292.041C180.668 290.527 193.729 281.262 199.645 273.956C190.483 280.807 180.465 287.7 179.122 284.115C178.464 282.356 195.831 266.3 202.023 258.859C193.386 262.694 186.776 259.282 189.492 257.963C192.796 256.359 211.001 247.633 217.194 232.262C223.686 216.147 205.799 199.96 216.102 198.057C221.364 197.089 248.26 216.672 245.986 243.418C245.103 253.803 239.749 265.903 234.376 272.455C224.872 284.042 217.096 290.972 214.876 289.59Z" fill="url(#paint3_linear_1113_6214)"/>
<defs>
<linearGradient id="paint0_linear_1113_6214" x1="158.503" y1="230.857" x2="147.433" y2="121.893" gradientUnits="userSpaceOnUse">
<stop stop-color="#3ADF68"/>
<stop offset="1" stop-color="#3EB860"/>
</linearGradient>
<linearGradient id="paint1_linear_1113_6214" x1="221.29" y1="115.591" x2="231.921" y2="320.187" gradientUnits="userSpaceOnUse">
<stop stop-color="#3FE06C"/>
<stop offset="0.4" stop-color="#59E681"/>
<stop offset="1" stop-color="#3DC062"/>
</linearGradient>
<linearGradient id="paint2_linear_1113_6214" x1="219.039" y1="40.0177" x2="217.253" y2="124.492" gradientUnits="userSpaceOnUse">
<stop stop-color="#60E887"/>
<stop offset="1" stop-color="#3EB860"/>
</linearGradient>
<linearGradient id="paint3_linear_1113_6214" x1="215.212" y1="200.2" x2="204.6" y2="280.685" gradientUnits="userSpaceOnUse">
<stop stop-color="#3ADF68"/>
<stop offset="1" stop-color="#3EB860"/>
</linearGradient>
</defs>
</svg>
